<?xml version="1.0" encoding="utf-8"?>
<!-- Generator: Adobe Illustrator 22.1.0, SVG Export Plug-In . SVG Version: 6.00 Build 0)  -->
<svg version="1.1" id="Слой_1" xmlns="http://www.w3.org/2000/svg" xmlns:xlink="http://www.w3.org/1999/xlink" x="0px" y="0px"
	 viewBox="0 0 700 500" style="enable-background:new 0 0 700 500;" xml:space="preserve">
<style type="text/css">
	.st0{fill:#FFFFFF;}
	.st1{fill:none;stroke:#000000;stroke-width:12;stroke-miterlimit:10;}
</style>
<g>
	<g id="XMLID_1_">
		<g>
			<path class="st0" d="M678.4,414.6l-0.1,0.4l-89.7-21.2c2.3-2.8,4.6-5.7,6.9-8.7l-3.5-2.8l-93.1-90c0.1-0.2,0.3-0.5,0.4-0.7
				l-2.9-1.7l-0.3-0.3v0.1l-3.1-1.8c-8.4,12.6-16.6,25.3-24.8,38c-4.1,6.3-8.1,12.7-12.2,19.1c-3.2,5-6.4,10-9.5,15.1l-272-64.4
				c6-3.8,11.9-7.6,17.6-11.9l-2.5-3.7l-63.3-111.9c0.3-0.3,0.5-0.5,0.8-0.8l-3.8-4.4c23-22.4,51.1-44,85.1-61.6
				c23.1-11.9,45.5-20.2,66-26c6.7-8.1,14-16.5,22-25c7.5-7.9,14.8-15.3,22-22c7,6.7,14.5,14.7,22,24c8.6,10.6,15.5,20.8,21,30
				c13.5,4,27.1,8.3,41,13c66.1,22.5,124.4,50.1,175,79c22.7-9.7,45.3-19.3,68-29c8.7,28.8,5.6,48.3,1,61c-3.3,9-7,13.8-12,27
				c-6.7,17.8-9.1,33.5-10,44c18,21.2,42.5,57,51,106C677.3,394.6,678.2,405,678.4,414.6z M447.4,277.1c0-8.6-6.9-15.5-15.5-15.5
				s-15.5,6.9-15.5,15.5s6.9,15.5,15.5,15.5S447.4,285.7,447.4,277.1z M247.4,212.1c0-8.6-6.9-15.5-15.5-15.5s-15.5,6.9-15.5,15.5
				s6.9,15.5,15.5,15.5S247.4,220.7,247.4,212.1z"/>
			<path d="M592,382.3l3.5,2.8c-2.3,3-4.5,5.9-6.9,8.7l-3.6-0.9c4.7-5.2,7.6-8.7,8.2-9.4L592,382.3z"/>
			<path d="M592,382.3l1.2,1.2c-0.6,0.8-3.5,4.3-8.2,9.4c-1.3-0.3-2.5-0.6-3.8-0.9c0.8-0.7,1.5-1.5,2.3-2.2c2.6-2.7,5.2-5.4,7.7-8.1
				L592,382.3z"/>
			<path class="st0" d="M592,382.3l-0.8-0.6c-2.5,2.7-5.1,5.4-7.7,8.1c-0.8,0.7-1.5,1.5-2.3,2.2l-123.6-29.3
				c6.2-10.6,12.6-21.3,18.9-32c7.6-12.8,15-25.6,22.4-38.5L592,382.3z"/>
			<path d="M585,392.9l3.6,0.9c-2.5,3.1-5.1,6-7.7,9c-5.1,5.7-10.4,11.2-15.9,16.6c-11,10.7-22.7,20.7-35.6,29.3
				c-6.5,4.3-13.2,8.2-20.4,11.6c-3.6,1.7-7.3,3.2-11.1,4.5s-7.7,2.3-11.7,3.1c-8,1.5-16.5,1.8-24.9,0c-4.2-0.9-8.1-2.3-11.9-4
				c-4.1-1.9-8-4.6-11-8c-3.1-3.4-5.5-7.3-7.1-11.6c-1.4-3.9-2.5-7.7-3.4-11.7c-1.7-7.9-2.3-16.1-1.6-24.3c0.4-4.1,1.1-8.2,2.2-12.2
				s2.7-7.8,4.3-11.4c3.4-7.2,7.3-13.9,11.2-20.4c0.8-1.4,1.7-2.8,2.5-4.2l5.5,1.3c-14.3,23.8-19.4,34.6-20.1,49.5
				c-0.6,12,1.7,22.5,4.7,30.9c2.6,7.3,8,13.3,15,16.5c2.6,1.2,5.2,2.2,7.7,2.9C504.9,474.7,563.6,416.5,585,392.9z"/>
			<path d="M585,392.9l-3.8-0.9l0,0C582.5,392.3,583.7,392.6,585,392.9z"/>
			<path d="M581.2,392l3.8,0.9c-21.4,23.6-80.1,81.8-125.7,68.3c-2.5-0.7-5.1-1.7-7.7-2.9c-7-3.2-12.4-9.2-15-16.5
				c-3-8.4-5.3-18.9-4.7-30.9c0.7-14.9,5.8-25.6,20.1-49.5l5.6,1.3c-1.4,2.4-2.8,4.7-4.1,7c-3.7,6.5-7.3,13-10.2,19.5
				c-1.4,3.3-2.7,6.5-3.6,9.8s-1.5,6.6-1.7,10c-0.6,6.9,0,13.9,1.5,20.8c0.7,3.4,1.7,6.9,2.9,10.1c1,2.8,2.6,5.4,4.7,7.6
				c2,2.2,4.5,4,7.2,5.2c3.1,1.4,6.4,2.5,9.5,3.3c6.4,1.5,13.3,1.4,20.2,0.2c3.4-0.6,6.8-1.5,10.2-2.6c3.4-1.1,6.7-2.3,10-3.8
				c6.6-2.9,13-6.4,19.3-10.3c6.3-3.9,12.3-8.1,18.2-12.6c5.9-4.5,11.7-9.2,17.3-14.1c5.6-4.9,11.1-10,16.5-15.2
				C577.4,395.8,579.3,393.9,581.2,392z"/>
			<path class="st0" d="M581.2,392L581.2,392c-1.9,1.9-3.8,3.8-5.7,5.7c-5.4,5.2-10.9,10.3-16.5,15.2s-11.4,9.6-17.3,14.1
				s-11.9,8.7-18.2,12.6c-6.3,3.9-12.7,7.4-19.3,10.3c-3.3,1.5-6.6,2.7-10,3.8s-6.8,2-10.2,2.6c-6.9,1.2-13.8,1.3-20.2-0.2
				c-3.1-0.8-6.4-1.9-9.5-3.3c-2.7-1.2-5.2-3-7.2-5.2c-2.1-2.2-3.7-4.8-4.7-7.6c-1.2-3.2-2.2-6.7-2.9-10.1
				c-1.5-6.9-2.1-13.9-1.5-20.8c0.2-3.4,0.8-6.7,1.7-10c0.9-3.3,2.2-6.5,3.6-9.8c2.9-6.5,6.5-13,10.2-19.5c1.3-2.4,2.7-4.7,4.1-7
				L581.2,392z"/>
			<path d="M499.3,291.6c-0.1,0.2-0.3,0.5-0.4,0.7l-2.5-2.4L499.3,291.6z"/>
			<path d="M496.4,289.9l2.5,2.4c-7.4,12.9-14.8,25.7-22.4,38.5c-6.3,10.6-12.7,21.3-18.9,32l-5.6-1.3c3-5,6.4-10.6,10.3-16.9
				c15.8-25.7,27.8-45.3,33.8-54.8L496.4,289.9z"/>
			<path class="st0" d="M496.1,289.6l0.3,0.3L496.1,289.6C496.1,289.7,496.1,289.6,496.1,289.6z"/>
			<path d="M493,287.9l3.1,1.8c-5.9,9.5-18,29.1-33.8,54.8c-3.9,6.3-7.3,11.9-10.3,16.9l-5.5-1.3c3.1-5.1,6.3-10.2,9.5-15.1
				c4.1-6.4,8.1-12.8,12.2-19.1C476.4,313.2,484.6,300.5,493,287.9z"/>
			<circle cx="431.9" cy="277.1" r="15.5"/>
			<circle cx="231.9" cy="212.1" r="15.5"/>
			<path d="M189.6,280.2l2.5,3.7c-5.7,4.2-11.6,8.1-17.6,11.9l-5.1-1.2c11.9-6.7,19.8-12,21-12.8L189.6,280.2z"/>
			<path d="M189.6,280.2l0.8,1.5c-1.2,0.8-9.1,6.1-21,12.8l-5.5-1.3c1.8-0.9,3.7-1.9,5.5-2.8c3.3-1.7,6.6-3.5,9.9-5.4
				c3.3-1.8,6.6-3.7,9.7-5.6L189.6,280.2z"/>
			<path class="st0" d="M189.6,280.2l-0.6-0.8c-3.1,1.9-6.4,3.8-9.7,5.6c-3.3,1.9-6.6,3.7-9.9,5.4c-1.8,1-3.6,1.9-5.5,2.8
				L47.4,265.6l0,0c8.5-16,20.7-36.8,37.6-59c3-2.7,5.9-5.4,8.9-8.2c10.8-10,21.7-19.9,32.4-30L189.6,280.2z"/>
			<path d="M174.5,295.8c-0.5,0.3-1,0.6-1.5,0.9c-6.5,4-13.1,7.8-19.9,11.3c-13.6,7.1-27.7,13.3-42.5,18c-7.4,2.3-15,4.2-22.8,5.3
				c-7.8,1.2-15.9,1.7-24,0.8c-8.1-0.8-16.4-3-23.8-7.1c-3.8-2.1-7.1-4.5-10.3-7.2c-3.5-3-6.3-6.7-8.4-10.8c-2-4.1-3.2-8.6-3.6-13.2
				c-0.3-4.1-0.2-8.1,0-12.2c0.5-7.4,2-14.8,4.6-21.9l6,1.4c-0.1,0.3-0.2,0.6-0.4,1c-4,11.3-4.7,22.1-4.3,31
				c0.4,7.7,3.9,15,9.7,20.1c2.2,1.9,4.4,3.5,6.6,5c35.5,23.1,97.2-5.4,129.5-23.7L174.5,295.8z"/>
			<path d="M163.9,293.2l5.5,1.3c-32.3,18.2-94,46.8-129.5,23.7c-2.2-1.5-4.4-3.1-6.6-5c-5.8-5.1-9.3-12.4-9.7-20.1
				c-0.4-8.9,0.3-19.7,4.3-31c0.1-0.3,0.2-0.7,0.4-1l6,1.4c-2.4,6.3-3.9,13.1-4.4,20c-0.3,3.5-0.3,7.1-0.1,10.5c0.2,3,1,5.9,2.3,8.6
				c1.3,2.7,3.1,5.1,5.4,7.1c2.5,2.2,5.4,4.2,8.2,5.9c5.8,3.3,12.4,5.2,19.3,6c3.5,0.4,7,0.5,10.5,0.5c3.6-0.1,7.1-0.3,10.7-0.8
				c7.2-0.9,14.3-2.4,21.4-4.4c7.1-1.9,14.1-4.3,21.1-6.9c6.9-2.6,13.8-5.5,20.6-8.7C154.2,298.1,159.1,295.7,163.9,293.2z"/>
			<path class="st0" d="M47.4,265.6l116.5,27.6c-4.8,2.5-9.7,4.8-14.6,7.1c-6.8,3.2-13.7,6.1-20.6,8.7c-7,2.6-14,5-21.1,6.9
				c-7.1,2-14.2,3.5-21.4,4.4c-3.6,0.5-7.1,0.7-10.7,0.8c-3.5,0-7-0.1-10.5-0.5c-6.9-0.8-13.5-2.7-19.3-6c-2.8-1.7-5.7-3.7-8.2-5.9
				c-2.3-2-4.1-4.4-5.4-7.1c-1.3-2.7-2.1-5.6-2.3-8.6c-0.2-3.4-0.2-7,0.1-10.5c0.5-6.9,2-13.7,4.4-20L47.4,265.6z"/>
			<path d="M123.9,164.1l2.4,4.3c-10.7,10.1-21.6,20.1-32.4,30c-3,2.7-5.9,5.5-8.9,8.2c7.9-10.3,16.7-21,26.7-31.6
				C116.8,170.4,120.9,166.8,123.9,164.1z"/>
			<path d="M123.3,163.2l3.8,4.4c-0.3,0.3-0.5,0.5-0.8,0.8l-2.4-4.3c-3,2.7-7.1,6.3-12.2,10.9C115.4,171,119.3,167.1,123.3,163.2z"
				/>
			<path d="M123.3,163.2c-4,3.9-7.8,7.8-11.5,11.8c-9.2,8.2-21.4,19.2-35.8,32.1c-31.1,28-41.6,37.7-47.6,54l-6-1.4
				c0.2-0.6,0.5-1.3,0.7-1.9c1.5-3.8,3.4-7.6,5.6-11.2c2.2-3.5,4.8-6.7,7.4-9.8c5.3-6,10.9-11.3,16.5-16.5s11.3-10.2,16.9-15.2
				c5.7-5,11.3-10,17.1-15c11.4-9.9,22.8-19.9,34.3-29.7L123.3,163.2z"/>
			<path d="M75.9,207.1c14.4-13,26.7-24,35.8-32.1c-10,10.6-18.9,21.3-26.7,31.6c-8.2,7.5-16.3,15-24.4,22.5
				c-5.4,5.1-10.8,10.3-15.4,15.7c-2.3,2.7-4.5,5.4-6.3,8.3s-3.3,5.9-4.5,9.1c0,0.1-0.1,0.2-0.1,0.4l-6-1.4
				C34.3,244.8,44.8,235.1,75.9,207.1z"/>
			<path class="st0" d="M60.6,229.1c8.1-7.5,16.2-15,24.4-22.5c-16.9,22.2-29.1,43-37.6,59l0,0l-13.1-3.1c0-0.1,0.1-0.2,0.1-0.4
				c1.2-3.2,2.7-6.2,4.5-9.1s4-5.6,6.3-8.3C49.8,239.4,55.2,234.2,60.6,229.1z"/>
		</g>
		<g>
			<path class="st1" d="M273.4,227.6c0.4,2.6,1.5,6.9,5,10c6.1,5.3,15,3,19,2c5.6-1.4,9.6-4.1,12-6c0.1,2.1,0.5,7.1,4,12
				c3.8,5.3,8.9,7.2,11,8c9.4,3.4,17.8,0,20-1"/>
			<path class="st1" d="M678.4,414.6c-0.2-9.6-1.1-20-3-31c-8.5-49-33-84.8-51-106c0.9-10.5,3.3-26.2,10-44c5-13.2,8.7-18,12-27
				c4.6-12.7,7.7-32.2-1-61c-22.7,9.7-45.3,19.3-68,29c-50.6-28.9-108.9-56.5-175-79c-13.9-4.7-27.5-9-41-13
				c-5.5-9.2-12.4-19.4-21-30c-7.5-9.3-15-17.3-22-24c-7.2,6.7-14.5,14.1-22,22c-8,8.5-15.3,16.9-22,25c-20.5,5.8-42.9,14.1-66,26
				c-34.1,17.6-62.2,39.2-85.1,61.6"/>
			<path class="st1" d="M-930.5,63.5"/>
			<path class="st1" d="M22.3,259.7"/>
			<line class="st1" x1="446.5" y1="360.1" x2="174.5" y2="295.8"/>
			<line class="st1" x1="678.3" y1="415" x2="588.6" y2="393.8"/>
			<path class="st1" d="M1629.5,669.5"/>
			<path class="st1" d="M678.3,415"/>
		</g>
	</g>
</g>
</svg>
